<svg xmlns="http://www.w3.org/2000/svg" xmlns:xlink="http://www.w3.org/1999/xlink" viewBox="470 245 170 190">
  <defs>
    <style>
      .cls-1 {
        clip-path: url(#clip-good_face);
      }

      .cls-2, .cls-3 {
        fill: #5cb85c;
      }

      .cls-2 {
        opacity: 0.4;
      }

      .cls-4 {
        fill: #fff;
      }
    </style>
    <clipPath id="clip-good_face">
      <rect x="470" y="245" width="170" height="190"/>
    </clipPath>
  </defs>
  <g id="good_face" data-name="good face" class="cls-1">
    <rect class="cls-4" x="470" y="245" width="170" height="190"/>
    <g id="Group_386" data-name="Group 386" transform="translate(333.937 -214.259)">
      <g id="Group_382" data-name="Group 382" transform="translate(160.818 493.827)">
        <ellipse id="Ellipse_3" data-name="Ellipse 3" class="cls-2" cx="57.419" cy="56.919" rx="57.419" ry="56.919" transform="translate(3.081 3.664)"/>
        <g id="smiley" transform="translate(0)">
          <path id="smile" class="cls-3" d="M68,15.742A52.258,52.258,0,1,0,120.258,68,52.255,52.255,0,0,0,68,15.742M68,8A60,60,0,1,1,8,68,60,60,0,0,1,68,8Z" transform="translate(-8 -8)"/>
          <circle id="Ellipse_1" data-name="Ellipse 1" class="cls-3" cx="4.755" cy="4.755" r="4.755" transform="translate(40.071 39.08)"/>
          <circle id="Ellipse_2" data-name="Ellipse 2" class="cls-3" cx="4.755" cy="4.755" r="4.755" transform="translate(70.499 39.08)"/>
          <path id="smile-2" data-name="smile" class="cls-3" d="M.677,6.009c-2.78-4.3,3.719-8.508,6.5-4.2,12.932,20,34.777,19.991,47.7,0,2.788-4.311,9.279-.092,6.5,4.2-15.995,24.741-44.732,24.7-60.7,0Z" transform="translate(29.338 66.591)"/>
        </g>
      </g>
    </g>
  </g>
</svg>
