<svg xmlns="http://www.w3.org/2000/svg" xmlns:xlink="http://www.w3.org/1999/xlink" viewBox="235 245 170 190">
  <defs>
    <style>
      .cls-1 {
        clip-path: url(#clip-neutral_face);
      }

      .cls-2, .cls-3 {
        fill: #f0ad4e;
      }

      .cls-2 {
        opacity: 0.3;
      }

      .cls-4 {
        fill: #fff;
      }
    </style>
    <clipPath id="clip-neutral_face">
      <rect x="235" y="245" width="170" height="190"/>
    </clipPath>
  </defs>
  <g id="neutral_face" data-name="neutral face" class="cls-1">
    <rect class="cls-4" x="235" y="245" width="170" height="190"/>
    <g id="Group_2" data-name="Group 2" transform="translate(-66 -217)">
      <g id="Group_385" data-name="Group 385" transform="translate(257 428)">
        <ellipse id="Ellipse_3" data-name="Ellipse 3" class="cls-2" cx="56.919" cy="56.919" rx="56.919" ry="56.919" transform="translate(72.496 71.491)"/>
        <g id="smiley" transform="translate(69.415 68.827)">
          <path id="smile" class="cls-3" d="M68,15.742A52.258,52.258,0,1,0,120.258,68,52.255,52.255,0,0,0,68,15.742M68,8A60,60,0,1,1,8,68,60,60,0,0,1,68,8Z" transform="translate(-8 -8)"/>
          <circle id="Ellipse_1" data-name="Ellipse 1" class="cls-3" cx="4.755" cy="4.755" r="4.755" transform="translate(40.071 39.08)"/>
          <circle id="Ellipse_2" data-name="Ellipse 2" class="cls-3" cx="4.755" cy="4.755" r="4.755" transform="translate(70.499 39.08)"/>
        </g>
        <rect id="Rectangle_60" data-name="Rectangle 60" class="cls-3" width="51.498" height="7.923" rx="3.961" transform="translate(103.666 141.293)"/>
      </g>
    </g>
  </g>
</svg>
