<svg xmlns="http://www.w3.org/2000/svg" xmlns:xlink="http://www.w3.org/1999/xlink" viewBox="235 0 170 190">
  <defs>
    <style>
      .cls-1 {
        clip-path: url(#clip-neutral_face_selected);
      }

      .cls-2, .cls-3, .cls-4, .cls-5 {
        fill: #f0ad4e;
      }

      .cls-2 {
        opacity: 0.3;
      }

      .cls-4 {
        opacity: 0.2;
      }

      .cls-5, .cls-6, .cls-7 {
        opacity: 0.4;
      }

      .cls-6, .cls-7, .cls-9 {
        fill: none;
      }

      .cls-6, .cls-7 {
        stroke: #f0ad4e;
      }

      .cls-6 {
        stroke-width: 4px;
      }

      .cls-7 {
        stroke-width: 3px;
      }

      .cls-8 {
        stroke: none;
      }

      .cls-10 {
        fill: #fff;
      }
    </style>
    <clipPath id="clip-neutral_face_selected">
      <rect x="235" width="170" height="190"/>
    </clipPath>
  </defs>
  <g id="neutral_face_selected" data-name="neutral face selected" class="cls-1">
    <rect class="cls-10" x="235" width="170" height="190"/>
    <g id="Group_2" data-name="Group 2" transform="translate(-66 -462)">
      <g id="Group_385" data-name="Group 385" transform="translate(257 428)">
        <ellipse id="Ellipse_3" data-name="Ellipse 3" class="cls-2" cx="56.919" cy="56.919" rx="56.919" ry="56.919" transform="translate(72.496 71.491)"/>
        <g id="smiley" transform="translate(69.415 68.827)">
          <path id="smile" class="cls-3" d="M68,15.742A52.258,52.258,0,1,0,120.258,68,52.255,52.255,0,0,0,68,15.742M68,8A60,60,0,1,1,8,68,60,60,0,0,1,68,8Z" transform="translate(-8 -8)"/>
          <circle id="Ellipse_1" data-name="Ellipse 1" class="cls-3" cx="4.755" cy="4.755" r="4.755" transform="translate(40.071 39.08)"/>
          <circle id="Ellipse_2" data-name="Ellipse 2" class="cls-3" cx="4.755" cy="4.755" r="4.755" transform="translate(70.499 39.08)"/>
        </g>
        <rect id="Rectangle_60" data-name="Rectangle 60" class="cls-3" width="51.498" height="7.923" rx="3.961" transform="translate(103.666 141.293)"/>
      </g>
      <circle id="Ellipse_15" data-name="Ellipse 15" class="cls-3" cx="3" cy="3" r="3" transform="translate(381 470)"/>
      <circle id="Ellipse_16" data-name="Ellipse 16" class="cls-3" cx="3" cy="3" r="3" transform="translate(457 607)"/>
      <circle id="Ellipse_18" data-name="Ellipse 18" class="cls-3" cx="3" cy="3" r="3" transform="translate(328 644)"/>
      <circle id="Ellipse_11" data-name="Ellipse 11" class="cls-4" cx="5.5" cy="5.5" r="5.5" transform="translate(310 597)"/>
      <circle id="Ellipse_17" data-name="Ellipse 17" class="cls-5" cx="5" cy="5" r="5" transform="translate(440 620)"/>
      <g id="Ellipse_10" data-name="Ellipse 10" class="cls-6" transform="translate(409 462)">
        <circle class="cls-8" cx="7" cy="7" r="7"/>
        <circle class="cls-9" cx="7" cy="7" r="5"/>
      </g>
      <g id="Ellipse_13" data-name="Ellipse 13" class="cls-7" transform="translate(301 508)">
        <circle class="cls-8" cx="4.5" cy="4.5" r="4.5"/>
        <circle class="cls-9" cx="4.5" cy="4.5" r="3"/>
      </g>
      <circle id="Ellipse_9" data-name="Ellipse 9" class="cls-2" cx="3" cy="3" r="3" transform="translate(463 497)"/>
    </g>
  </g>
</svg>
